<svg xmlns="http://www.w3.org/2000/svg" viewBox="0 0 100 100" fill="none">
  <circle cx="50" cy="50" r="50" fill="#F0E4F4"/>
  <!-- Dad (left) -->
  <ellipse cx="34" cy="32" rx="9" ry="10" fill="#F5C6AA"/>
  <path d="M25 27c0-5 4-9 9-9s9 4 9 9c1-1.5 1.5-3.5 1.5-6C44.5 15 39.8 10.5 34 10.5S23.5 15 23.5 21c0 2.5.5 4.5 1.5 6z" fill="#7B6B8A"/>
  <circle cx="31" cy="31" r="1" fill="#5C3D5E"/>
  <circle cx="37" cy="31" r="1" fill="#5C3D5E"/>
  <path d="M32 36c1 1 3 1 4 0" stroke="#D4849A" stroke-width="1" stroke-linecap="round"/>
  <path d="M34 46c-12 0-20 8-20 19v2c0 6 8.5 11 20 11 3.5 0 6.8-.5 9.5-1.4" fill="#7B6B8A"/>
  <path d="M29 46v5c0 2.8 2.2 5 5 5s5-2.2 5-5v-5" fill="#F5C6AA"/>
  <!-- Mom (right) -->
  <ellipse cx="66" cy="32" rx="9" ry="10" fill="#F5C6AA"/>
  <path d="M57 27c0-5 4-9 9-9s9 4 9 9c1-1.5 1.5-3.5 1.5-6C76.5 15 71.8 10.5 66 10.5S55.5 15 55.5 21c0 2.5.5 4.5 1.5 6z" fill="#D4849A"/>
  <circle cx="63" cy="31" r="1" fill="#5C3D5E"/>
  <circle cx="69" cy="31" r="1" fill="#5C3D5E"/>
  <path d="M64 36c1 1 3 1 4 0" stroke="#D4849A" stroke-width="1" stroke-linecap="round"/>
  <path d="M66 46c12 0 20 8 20 19v2c0 6-8.5 11-20 11-3.5 0-6.8-.5-9.5-1.4" fill="#D4849A"/>
  <path d="M61 46v5c0 2.8 2.2 5 5 5s5-2.2 5-5v-5" fill="#F5C6AA"/>
  <!-- Baby (center bottom) -->
  <circle cx="50" cy="62" r="7" fill="#F5C6AA"/>
  <circle cx="48" cy="61" r="0.8" fill="#5C3D5E"/>
  <circle cx="52" cy="61" r="0.8" fill="#5C3D5E"/>
  <path d="M49 64c.5.5 1.5.5 2 0" stroke="#D4849A" stroke-width="0.8" stroke-linecap="round"/>
  <path d="M50 69c-7 0-12 5-12 12v3c0 4 5.4 8 12 8s12-4 12-8v-3c0-7-5-12-12-12z" fill="#C49DB8"/>
</svg>
