<svg xmlns="http://www.w3.org/2000/svg" viewBox="0 0 100 100" fill="none">
  <circle cx="50" cy="50" r="50" fill="#FDEAE0"/>
  <circle cx="50" cy="38" r="16" fill="#D4849A"/>
  <path d="M50 22c-8.8 0-16 7.2-16 16s7.2 16 16 16 16-7.2 16-16-7.2-16-16-16z" fill="#F5C6AA"/>
  <ellipse cx="50" cy="36" rx="12" ry="13" fill="#F5C6AA"/>
  <path d="M38 32c0-8 5-14 12-14s12 6 12 14c2-2 3-6 3-10 0-9-6.7-16-15-16S35 13 35 22c0 4 1 8 3 10z" fill="#D4849A"/>
  <circle cx="45" cy="35" r="1.5" fill="#5C3D5E"/>
  <circle cx="55" cy="35" r="1.5" fill="#5C3D5E"/>
  <path d="M47 41c1.5 1.5 4.5 1.5 6 0" stroke="#D4849A" stroke-width="1.5" stroke-linecap="round"/>
  <path d="M50 54c-18 0-30 12-30 28v2c0 9 13.4 16 30 16s30-7 30-16v-2c0-16-12-28-30-28z" fill="#D4849A"/>
  <path d="M42 54v8c0 4.4 3.6 8 8 8s8-3.6 8-8v-8" fill="#F5C6AA"/>
</svg>
